<?xml version="1.0" encoding="UTF-8"?>
<!DOCTYPE svg PUBLIC "-//W3C//DTD SVG 1.1//EN" "http://www.w3.org/Graphics/SVG/1.1/DTD/svg11.dtd">
<!-- Creator: CorelDRAW 2021 (64-Bit) -->
<svg xmlns="http://www.w3.org/2000/svg" xml:space="preserve" width="256px" height="256px" version="1.1" style="shape-rendering:geometricPrecision; text-rendering:geometricPrecision; image-rendering:optimizeQuality; fill-rule:evenodd; clip-rule:evenodd"
viewBox="0 0 12.57 12.56"
 xmlns:xlink="http://www.w3.org/1999/xlink"
 xmlns:xodm="http://www.corel.com/coreldraw/odm/2003">
 <defs>
  <style type="text/css">
   <![CDATA[
    .str0 {stroke:#178E9E;stroke-width:0.09;stroke-miterlimit:22.9256}
    .fil0 {fill:none}
    .fil3 {fill:none;fill-rule:nonzero}
    .fil2 {fill:#178E9E}
    .fil1 {fill:#178E9E;fill-rule:nonzero}
   ]]>
  </style>
 </defs>
 <g id="Layer_x0020_1">
  <metadata id="CorelCorpID_0Corel-Layer"/>
  <g id="_1510571350528">
   <rect class="fil0" width="12.57" height="12.56"/>
   <g>
    <g>
     <path class="fil1" d="M9.8 10.96l-6.99 0 0 -0.24 6.99 0 0.09 0.2 -0.09 0.04zm0.09 -0.04l-0.04 0.04 -0.05 0 0.09 -0.04zm-3.47 -10.17l-0.24 -0.03 0.24 0 0.07 0.38 0.1 0.36 0.14 0.35 0.16 0.33 0.19 0.33 0.2 0.32 0.23 0.3 0.24 0.3 0.26 0.29 0.26 0.29 0.27 0.28 0.27 0.27 0.27 0.27 0.27 0.28 0.26 0.27 0.25 0.27 0.24 0.27 0.23 0.27 0.2 0.28 0.18 0.29 0.16 0.29 0.12 0.3 0.1 0.31 0.05 0.32 0.02 0.33 -0.03 0.34 -0.07 0.36 -0.13 0.36 -0.18 0.38 -0.23 0.39 -0.29 0.4 -0.34 0.42 -0.18 -0.16 0.34 -0.4 0.28 -0.39 0.22 -0.37 0.16 -0.36 0.12 -0.34 0.07 -0.32 0.02 -0.31 -0.01 -0.3 -0.05 -0.29 -0.09 -0.29 -0.11 -0.28 -0.15 -0.27 -0.17 -0.27 -0.2 -0.27 -0.22 -0.27 -0.23 -0.27 -0.25 -0.26 -0.26 -0.27 -0.27 -0.27 -0.27 -0.27 -0.27 -0.28 -0.27 -0.28 -0.27 -0.29 -0.26 -0.3 -0.24 -0.3 -0.24 -0.32 -0.21 -0.33 -0.2 -0.34 -0.17 -0.35 -0.14 -0.37 -0.11 -0.38 -0.07 -0.4 0.23 0zm-3.61 9.97l0 0.24 -0.09 -0.04 -0.36 -0.41 -0.29 -0.4 -0.24 -0.38 -0.18 -0.38 -0.13 -0.36 -0.07 -0.35 -0.03 -0.34 0.01 -0.33 0.06 -0.33 0.09 -0.31 0.13 -0.3 0.16 -0.3 0.18 -0.28 0.21 -0.29 0.22 -0.28 0.24 -0.27 0.26 -0.28 0.26 -0.27 0.28 -0.28 0.27 -0.27 0.27 -0.28 0.28 -0.28 0.26 -0.29 0.26 -0.29 0.24 -0.3 0.23 -0.31 0.2 -0.31 0.19 -0.33 0.16 -0.33 0.13 -0.34 0.11 -0.36 0.06 -0.37 0.24 0.03 -0.07 0.39 -0.11 0.38 -0.14 0.36 -0.17 0.35 -0.2 0.34 -0.21 0.33 -0.24 0.31 -0.24 0.31 -0.26 0.3 -0.27 0.29 -0.28 0.28 -0.27 0.28 -0.28 0.28 -0.27 0.27 -0.26 0.27 -0.25 0.27 -0.24 0.27 -0.22 0.27 -0.2 0.28 -0.17 0.27 -0.15 0.28 -0.12 0.28 -0.08 0.29 -0.06 0.29 -0.01 0.3 0.03 0.31 0.07 0.33 0.12 0.33 0.17 0.35 0.22 0.37 0.29 0.38 0.34 0.4 -0.08 -0.04zm0 0.24l-0.05 0 -0.04 -0.04 0.09 0.04z"/>
    </g>
    <path class="fil2" d="M5.36 9.64l-2.68 0 0.35 -0.55 1.77 0 0 -0.58 -1.4 0 0.35 -0.55 1.61 0 0 0.55 0.15 0 0.52 -4.81 -0.13 0 0.1 -0.13c-0.08,-0.07 -0.13,-0.18 -0.13,-0.3 0,-0.22 0.15,-0.39 0.36,-0.42l0.02 -0.07 0.04 -0.16 0.04 0.16 0.02 0.07c0.2,0.03 0.36,0.2 0.36,0.42 0,0.12 -0.05,0.23 -0.13,0.3l0.09 0.13 -0.12 0 0.48 4.81 0.18 0 0 -0.55 1.61 0 0.35 0.55 -1.39 0 0 0.58 1.76 0 0.36 0.55 -2.69 0 0 -0.55 -1.85 0 0 0.55z"/>
    <rect class="fil2" x="2.83" y="11.15" width="6.91" height="0.68" rx="0.16" ry="0.16"/>
    <g>
     <path class="fil2" d="M5.79 9.2c0.12,0 0.22,0.1 0.22,0.23 0,0.12 -0.1,0.22 -0.22,0.22 -0.12,0 -0.22,-0.1 -0.22,-0.22 0,-0.13 0.1,-0.23 0.22,-0.23z"/>
     <path id="_1" class="fil3 str0" d="M5.79 9.2c0.12,0 0.22,0.1 0.22,0.23 0,0.12 -0.1,0.22 -0.22,0.22 -0.12,0 -0.22,-0.1 -0.22,-0.22 0,-0.13 0.1,-0.23 0.22,-0.23z"/>
    </g>
    <g>
     <path class="fil2" d="M6.77 9.2c0.13,0 0.23,0.1 0.23,0.23 0,0.12 -0.1,0.22 -0.23,0.22 -0.12,0 -0.22,-0.1 -0.22,-0.22 0,-0.13 0.1,-0.23 0.22,-0.23z"/>
     <path id="_1_0" class="fil3 str0" d="M6.77 9.2c0.13,0 0.23,0.1 0.23,0.23 0,0.12 -0.1,0.22 -0.23,0.22 -0.12,0 -0.22,-0.1 -0.22,-0.22 0,-0.13 0.1,-0.23 0.22,-0.23z"/>
    </g>
   </g>
  </g>
 </g>
</svg>
